<svg width="73" height="88" viewBox="0 0 73 88" fill="none" xmlns="http://www.w3.org/2000/svg">
<rect x="9" y="18" width="56" height="55" rx="8" fill="#2CB1BC"/>
<path d="M38.744 42.808C39.752 42.808 40.688 43 41.552 43.384C42.44 43.768 43.196 44.308 43.82 45.004C44.468 45.676 44.96 46.492 45.296 47.452C45.656 48.388 45.836 49.42 45.836 50.548C45.836 51.604 45.668 52.588 45.332 53.5C45.02 54.412 44.564 55.204 43.964 55.876C43.364 56.524 42.656 57.04 41.84 57.424C41.024 57.808 40.112 58 39.104 58H27.944V53.464H37.808C38.288 53.464 38.744 53.404 39.176 53.284C39.632 53.164 40.016 52.984 40.328 52.744C40.64 52.504 40.892 52.204 41.084 51.844C41.276 51.484 41.372 51.052 41.372 50.548C41.372 49.612 41.06 48.88 40.436 48.352C39.836 47.824 39.08 47.56 38.168 47.56H35.252C34.028 47.56 32.912 47.428 31.904 47.164C30.896 46.9 30.044 46.48 29.348 45.904C28.652 45.328 28.112 44.584 27.728 43.672C27.344 42.76 27.152 41.668 27.152 40.396C27.152 39.508 27.308 38.644 27.62 37.804C27.932 36.964 28.364 36.232 28.916 35.608C29.468 34.96 30.14 34.444 30.932 34.06C31.724 33.676 32.6 33.484 33.56 33.484H43.676V38.272H35.432C34.952 38.272 34.508 38.308 34.1 38.38C33.692 38.428 33.332 38.536 33.02 38.704C32.708 38.848 32.468 39.076 32.3 39.388C32.132 39.7 32.048 40.12 32.048 40.648C32.048 41.248 32.252 41.764 32.66 42.196C33.068 42.604 33.62 42.808 34.316 42.808H38.744Z" fill="white"/>
</svg>
